#tb 0: 1/1000
0,          0,          0,        0,     1536, a43068a364cc42619e62406dcf17ddfc
0,         33,         33,        0,     1536, 94691f93299bbf5b6ba3022b02b3e069
0,         66,         66,        0,     1536, 3c8fc275490b4daf63ef6d8f9b7f81f6
0,        100,        100,        0,     1536, 96c06031f0fcad49dfed256c5c737d07
0,        133,        133,        0,     1536, f722d3a51790b55d070d57d3b9a53d0d
0,        166,        166,        0,     1536, a753b3dfe13f5778f9f054e73e512ef1
0,        200,        200,        0,     1536, fa12cbe6cbc38fa8a38ecbcf1af8833c
0,        233,        233,        0,     1536, cb42303391ef6f76f77d14d2600cce12
0,        266,        266,        0,     1536, e0c18bb1d4dcc8168b5fdd7c7963987e
0,        300,        300,        0,     1536, 581b5291cb60e50326c0dfa6a2d09d8a
